<svg width="433" height="525" viewBox="0 0 433 525" fill="none" xmlns="http://www.w3.org/2000/svg">
<ellipse cx="202.969" cy="321.5" rx="202.5" ry="203" fill="#FF424E"/>
<mask id="mask0_615_1847" style="mask-type:alpha" maskUnits="userSpaceOnUse" x="0" y="0" width="433" height="525">
<path d="M405.937 321.532C405.937 433.628 315.065 524.5 202.968 524.5C90.8721 524.5 0 433.628 0 321.532C0 209.435 62.9036 0 175 0C287.096 0 509 189.5 405.937 321.532Z" fill="#0675EB"/>
</mask>
<g mask="url(#mask0_615_1847)">
<path d="M198.881 372.123C176.782 385.477 162.643 415.949 158.426 442.265C155.186 462.469 188.286 494.981 213.821 498.694C239.354 502.408 273.188 481.161 280.345 460.873C287.501 440.588 279.466 394.52 262.038 379.466" fill="#FAA181"/>
<path d="M277.738 446.708C290.054 484.567 278.591 583.931 272.383 613.195C267.654 635.491 243.482 641.745 233.884 617.326C224.285 592.907 207.365 494.497 211.903 475.385" fill="#FAA181"/>
<path d="M160.157 442.43C147.824 461.728 127.925 573.546 129.838 601.583C131.754 629.724 150.908 642.912 170.051 619.229C192.743 591.155 224.698 496.858 225.941 483.78" fill="#FAA181"/>
<path d="M147.156 265.649C133.6 297.989 193.34 408.551 236.539 395.548C271.841 384.923 296.894 262.149 262.696 242.588C234.9 226.692 158.417 238.782 147.156 265.649Z" fill="#FAA181"/>
<path d="M181.219 209.425C189.419 215.685 193.601 233.215 188.983 240.697C177.436 247.797 175.491 267.812 206.362 266.523C237.231 265.234 238.638 245.071 227.802 239.993C218.576 235.668 216.796 212.017 220.773 207.762" fill="#FAA181"/>
<path d="M215.637 214.364C213.021 225.501 200.295 227.143 199.726 229.194C197.844 235.993 192.645 245.476 187.329 243.872C193.598 237.172 189.419 220.826 186.381 214.639" fill="#F26E4E"/>
<path d="M165.336 416.74C162.084 425.215 159.758 433.949 158.425 442.265C155.185 462.469 188.285 494.981 213.821 498.694C239.354 502.408 273.188 481.161 280.344 460.873C282.503 454.752 283.281 446.288 282.833 437.034" fill="#0C0C11"/>
<path d="M151.493 435.62C129.709 479.411 124.934 570.415 117.555 593.495C110.176 616.573 94.8463 662.681 102.055 691.355C104.006 704.17 135.978 713.529 146.037 707.11C169.497 696.317 200.747 620.921 216.15 553.936C221.358 531.276 229.595 489.547 229.595 489.547" fill="#0C0C11"/>
<path d="M286.165 445.55C300.616 502.19 288.714 582.3 285.529 614.661C282.344 647.022 279.447 685.521 267.115 701.302C255.432 710.565 230.613 709.019 221.465 700.931C211.742 685.883 212.742 645.513 212.606 619.182C212.467 592.852 208.08 523.307 208.898 501.649" fill="#0C0C11"/>
<path d="M225.563 543.27C219.655 577.474 225.606 673.231 233.188 695.506C238.523 701.143 250.284 703.808 263.154 700.369C279.615 687.937 299.194 511.793 287.699 458.692C280.499 465.357 264.487 477.801 235.098 476.011C205.709 474.223 166.739 450.239 166.739 450.239C166.739 450.239 156.398 450.668 146.964 470.333C136.732 493.987 131.021 581.048 125.593 596.337C120.165 611.625 102.13 658.415 108.413 688.968C113.434 695.263 137.874 704.262 153.565 686.329C169.688 667.907 202.816 602.967 218.409 533.364C228.297 530.233 247.59 520.842 253.874 515.193C244.451 531.128 226.71 536.64 225.563 543.27Z" fill="#21212B"/>
<path d="M189.45 466.379C183.644 489.222 164.31 504.615 145.376 504.609C134.589 573.306 140.043 624.666 135.037 631.409C130.031 638.156 126.153 610.275 126.153 610.275C118.366 630.511 108.629 683.465 117.473 690.318C126.317 697.169 143.046 689.417 168.62 639.954C197.514 584.067 205.879 549.214 207.888 538.149C194.997 539.853 188.017 535.258 188.017 535.258C207.003 535.004 252.754 518.241 271.922 496.811C267.633 487.38 268.119 479.081 268.119 479.081C243.551 489.761 215.639 481.7 189.45 466.379Z" fill="#2D2D3A"/>
<path d="M139.862 508.728C139.226 509.012 142.177 518.148 145.238 518.75C148.535 519.399 158.871 505.73 158.709 505.003C158.547 504.276 148.668 512.856 145.503 512.331C142.613 511.854 140.497 508.447 139.862 508.728Z" fill="#D8D6CE"/>
<path d="M178.415 465.354C172.048 488.889 150.932 493.567 140.625 489.312C139.304 478.218 141.885 452.467 158.204 449.588C174.525 446.711 185.818 448.866 178.415 465.354Z" fill="#0C0C11"/>
<path d="M173.931 467.283C175.151 471.689 161.063 486.418 147.193 483.687C145.88 480.709 147.707 467.793 152.008 465.893C156.309 463.993 172.069 460.572 173.931 467.283Z" fill="#21212B"/>
<path d="M143.947 493.839C147.745 506.173 172.945 496.51 178.417 474.247C172.659 488.185 151.944 495.383 143.947 493.839Z" fill="#2D2D3A"/>
<path d="M271.924 466.116C274.288 485.04 284.933 497.032 292.029 495.239C292.011 485.263 291.15 462.811 287.315 457.333C280.366 460.948 275.86 463.57 271.924 466.116Z" fill="#0C0C11"/>
<path d="M277.348 467.39C274.336 470.62 280.996 490.32 289.363 490.317C290.869 487.617 291.103 465.939 287.314 463.798C285.505 462.779 279.233 465.368 277.348 467.39Z" fill="#21212B"/>
<path d="M290.391 499.114C285.573 510.576 268.454 492.687 272.061 473.83C275.931 488.904 283.293 499.233 290.391 499.114Z" fill="#2D2D3A"/>
<path d="M268.681 488.272C271.389 500.51 281.473 507.005 287.311 508.201C289.933 572.251 271.597 692.201 258.643 698.857C245.685 705.517 238.318 666.181 235.925 611.321C233.532 556.462 234.428 543.572 237.419 541.173C240.41 538.775 260.171 520.321 261.059 502.718" fill="#2D2D3A"/>
<path d="M349.115 246.198C340.759 252.266 372.882 285.809 378.767 276.719C384.9 267.242 360.919 237.626 349.115 246.198Z" fill="#AFA798"/>
<path d="M259.896 244.59C268.879 233.406 322.627 283.431 343.284 293.418C357.123 300.107 350.27 324.702 334.318 327.578C318.366 330.458 271.069 299.823 268.543 297.094" fill="#FAA181"/>
<path d="M322.556 292.692C319.825 270.625 361.694 241.459 372.503 219.224C378.836 204.84 412.262 212.072 391.467 234.562C381.293 268.933 353.786 325.765 331.496 327.584" fill="#FAA181"/>
<path d="M379.641 198.574C386.139 193.409 396.729 188.358 402.466 190.356C408.79 192.558 413.394 214.164 410.481 224.447C403.472 234.156 396.214 238.808 387.543 234.895" fill="#FAA181"/>
<path d="M391.017 196.712C393.864 204.092 393.22 217.741 391.017 222.28C398.373 223.074 400.382 226.544 403.677 228.299C409.891 227.833 409.027 213.611 404.908 205.204C400.792 196.798 394.115 196.312 391.017 196.712Z" fill="#F26E4E"/>
<path d="M373.256 223.143C371.002 214.598 372.623 200.083 376.294 195.159C383.107 186.02 380.106 175.702 384.286 173.13C387.37 171.23 394.59 182.648 389.208 195.506C395.072 203.093 393.185 216.293 391.078 219.662" fill="#FAA181"/>
<path d="M410.838 215.551C421.379 219.366 416.119 228.557 408.636 230.524C402.719 232.079 394.953 226.86 407.208 223.288" fill="#FAA181"/>
<path d="M406.798 205.882C421.045 207.348 417.36 220.374 408.692 225.13C401.836 228.893 390.592 224.829 404.688 216.597" fill="#FAA181"/>
<path d="M402.641 196.711C418.573 197.253 415.466 212.003 406.199 217.944C398.867 222.645 386.077 218.987 401.107 208.773" fill="#FAA181"/>
<path d="M397.039 190.11C412.919 188.694 411.638 203.713 403.164 210.746C396.464 216.313 384.27 214.673 396.99 202.27C398.753 200.552 400.173 197.589 400.173 197.589" fill="#FAA181"/>
<path d="M313.931 272.062C318.382 275.526 323.802 277.62 323.802 277.62C329.186 265.33 343.433 253.691 349.115 246.198C347.736 255.444 371.812 275.52 378.767 276.719C372.561 295.307 348.933 325.785 337.863 329.432C326.796 333.079 307.948 323.787 300.17 318.99" fill="#D8D6CE"/>
<path d="M348.636 250.939C340.708 257.384 325.354 272.742 323.956 282.716C322.56 292.689 324.852 304 324.852 304C320.664 299.504 318.455 291.043 318.455 291.043C315.282 300.553 312.131 312.994 312.131 312.994C316.626 318.692 328.464 321.693 335.196 319.445C341.928 317.197 359.287 299.829 366.914 272.997C356.292 265.956 350.731 257.196 348.636 250.939Z" fill="#F0EAEC"/>
<path d="M302.351 320.282C308.637 314.292 319.843 283.839 319.62 275.671C320.455 275.882 322.505 277.05 322.505 277.05C325.843 282.391 319.036 315.737 308.995 323.743C305.281 322.808 302.351 320.282 302.351 320.282Z" fill="#1D1D27"/>
<path d="M269.369 240.025C282.601 241.047 302.694 260.049 307.952 264.432C313.209 268.815 317.371 269.084 318.383 275.526C319.395 281.968 309.521 318.839 305.088 322.214C299.619 326.374 281.029 310.077 275.644 310.526" fill="#C98211"/>
<path d="M273.422 242.009C280.402 241.685 305.935 265.33 314.684 268.476C319.843 280.167 310.305 306.497 306.438 311.992C298.082 308.722 280.316 301.35 274.622 269.374C270.344 245.363 273.422 242.009 273.422 242.009Z" fill="#F2AF08"/>
<path d="M302.703 307.485C302.134 310.955 300.61 317.191 300.61 317.191C304.31 317.634 308.813 312.452 313.016 296.121" fill="#F2AF08"/>
<path d="M276.02 245.372C279.867 240.236 304.831 263.838 310.47 266.433C309.262 276.601 305.033 290.638 300.877 291.046C287.362 284.839 270.864 252.254 276.02 245.372Z" fill="#FFC648"/>
<path d="M315.352 268.647C318.988 270.405 317.193 292.049 307.178 299.756C313.169 285.044 311.291 266.683 315.352 268.647Z" fill="#FFC648"/>
<path d="M322.136 280.552C320.714 292.268 321.708 316.522 315.528 326.547C319.344 328.468 325.514 329.537 325.514 329.537C330.188 323.778 323.988 290.782 323.754 276.748" fill="#1D1D27"/>
<path d="M338.705 329.117C338.823 323.596 330.335 310.433 327.834 297.633C331.927 305.744 340.425 313.967 346.705 323.514C343.023 327.77 338.705 329.117 338.705 329.117Z" fill="#1D1D27"/>
<path d="M323.617 277.099C324.635 285.34 330.302 298.131 354.09 315.992C356.09 314.694 359.263 309.799 359.263 309.799C346.468 300.188 328.924 284.694 326.236 273C324.458 274.474 323.617 277.099 323.617 277.099Z" fill="#1D1D27"/>
<path d="M364.125 303.316C366.891 300.454 368.822 296.46 368.822 296.46C356.333 292.419 335.17 273.724 333.017 263.644C333.017 263.644 329.262 267.972 328.138 270.095C330.068 277.574 350.13 296.567 364.125 303.316Z" fill="#1D1D27"/>
<path d="M372.981 289.372C356.342 285.024 340.931 266.755 338.271 258.013C340.419 255.212 343.763 252.286 343.763 252.286C347.908 260.429 358.437 274.498 377.198 280.995C377.198 280.995 373.759 288.242 372.981 289.372Z" fill="#1D1D27"/>
<path d="M344.818 254.233C343.778 252.567 340.708 258.123 340.48 260.278C340.251 262.433 350.683 280.1 363.75 284.129C364.998 283.214 366.646 276.884 366.646 276.884C357.07 274.518 348.72 260.475 344.818 254.233Z" fill="#363642"/>
<path d="M333.175 266.384C331.828 267.395 328.874 271.972 328.874 271.972C332.614 278.527 343.831 293.242 355.609 297.633C357.069 295.614 359.263 292.356 359.263 292.356C351.046 288.231 336.539 274.816 333.175 266.384Z" fill="#363642"/>
<path d="M326.586 275.671C325.213 277.852 324.54 279.987 324.54 279.987C326.222 290.331 338.922 304.831 346.705 308.652C348.992 307.754 350.731 303.313 350.731 303.313C343.026 298.308 330.875 286.643 326.586 275.671Z" fill="#363642"/>
<path d="M319.678 278.272C319.799 276.896 321.369 277.441 322.429 280.288C323.49 283.135 321.418 300.104 318.293 307.635C315.787 309.367 313.016 304.872 313.016 304.872C315.565 295.127 319.38 281.652 319.678 278.272Z" fill="#363642"/>
<path d="M324.54 290.481C323.704 285.583 321.921 290.47 321.774 297.633C321.626 304.797 318.588 318.324 325.063 317.687C329.849 317.214 324.843 292.266 324.54 290.481Z" fill="#363642"/>
<path d="M327.834 296.851C326.791 297.59 332.314 316.261 335.904 318.81C340.017 318.286 340.473 315.662 340.473 315.662C336.953 309.892 328.36 296.477 327.834 296.851Z" fill="#363642"/>
<path d="M375.354 217.399C370.308 228.711 350.732 250.279 350.732 250.279C354.232 257.439 363.747 265.495 369.409 268.116C374.12 259.079 384.664 236.279 384.664 236.279C374.904 227.239 375.354 217.399 375.354 217.399Z" fill="#FFC599"/>
<path d="M384.55 174.428C382.602 174.868 383.542 180.835 381.856 186.568C380.174 192.3 377.593 194.672 376.359 198.545C375.125 202.418 370.529 218.877 379.275 227.236C391.137 238.577 399.808 231.141 400.378 229.168C400.947 227.196 395.921 224.745 393.213 224.592C389.322 224.371 385.779 226.138 385.779 226.138C389.646 218.01 391.964 203.316 385.507 195.785C390.123 186.081 388.027 173.64 384.55 174.428Z" fill="#FFC599"/>
<path d="M391.994 192.676C397.827 189.901 403.584 190.576 406.726 193.65C409.868 196.723 406.949 204.495 401.211 209.089C395.474 213.683 392.113 212.388 391.997 210.213C391.881 208.037 400.925 198.134 402.645 196.711C400.547 197.085 391.468 196.425 391.994 192.676Z" fill="#FFC599"/>
<path d="M410.237 200.06C410.292 204.333 405.078 212.875 396.216 214.731C394.126 216.58 397.274 219.563 405.638 214.057C414.003 208.547 413.266 201.352 410.237 200.06Z" fill="#FFC599"/>
<path d="M413.659 210.346C410.743 216.753 405.358 220.351 400.17 220.858C397.979 223.027 400.309 226.309 409.058 221.869C417.81 217.428 415.622 210.12 413.659 210.346Z" fill="#FFC599"/>
<path d="M414.726 221.194C412.986 222.767 408.949 227.433 403.677 227.32C408.128 230.64 418.371 224.725 414.726 221.194Z" fill="#FFC599"/>
<path d="M396.29 207.861C394.573 207.487 391.848 210.384 392.648 212.009C393.449 213.634 398.307 212.452 398.359 211.064C398.414 209.677 397.594 208.144 396.29 207.861Z" fill="#FF9A92"/>
<path d="M399.987 215.551C398.354 214.894 394.655 216.805 395.49 218.416C396.103 219.592 400.996 219.801 401.279 218.439C401.565 217.078 401.224 216.049 399.987 215.551Z" fill="#FF9A92"/>
<path d="M403.522 221.845C401.889 221.188 398.189 223.103 399.024 224.71C399.637 225.886 404.53 226.095 404.814 224.733C405.097 223.375 404.759 222.344 403.522 221.845Z" fill="#FF9A92"/>
<path d="M405.53 226.851C404.322 226.272 401.761 227.905 402.319 229.168C402.726 230.092 405.556 230.585 406.221 229.765C406.703 229.168 406.443 227.288 405.53 226.851Z" fill="#FF9A92"/>
<path d="M383.08 174.089C384.308 174.526 384.366 178.211 383.99 179.561C383.617 180.91 382.013 180.777 381.508 180.169C381.224 177.912 382.528 174.454 383.08 174.089Z" fill="#FF9A92"/>
<path d="M283.825 310.877C284.392 321.832 282.984 346.019 284.666 373.424C286.351 400.826 292.47 439.539 289.863 445.837C287.259 452.137 273.802 466.507 233.071 466.107C192.341 465.707 163.12 441.712 145.325 441.555C145.706 421.986 156.218 389.074 156.577 384.602C156.935 380.129 153.022 345.584 148.767 331.501C143.77 298.386 137.96 264.872 142.666 257.326C147.169 250.102 176.037 239.362 181.338 240.297C187.058 240.697 186.803 251.872 203.879 253.743C222.383 255.774 231.675 246.441 230.019 234.805C245.503 233.539 265.388 236.471 272.148 240.465C278.524 244.234 269.371 274.246 283.825 310.877Z" fill="#C98211"/>
<path d="M287.313 440.029C290.499 440.252 290.623 446.329 288.802 448.751C278.709 464.662 225.941 473.001 185.687 453.782C174.528 447.609 183.893 446.451 183.893 446.451C211.261 460.265 267.795 463.19 287.313 440.029Z" fill="#F2AF08"/>
<path d="M170.206 245.995C168.81 242.064 146.424 251.84 145.199 258.476C142.612 272.751 154.823 319.679 159.217 330.765C165.194 345.845 174.527 368.754 184.559 383.371C181.854 386.69 170.33 369.206 165.107 362.46C163.249 375.949 162.33 413.047 154.714 432.159C174.914 439.58 202.285 454.999 239.076 453.921C275.87 452.843 286.188 439.895 287.309 436.703C285.962 424.291 280.3 369.6 278.956 350.937C278.11 339.203 279.416 308.713 278.991 282.113C278.74 266.41 272.346 249.178 275.635 243.724C267.32 235.605 246.255 236.271 246.255 236.271C250.074 268.702 182.117 279.494 170.206 245.995Z" fill="#F2AF08"/>
<path d="M148.642 256.165C148.451 276.525 174.395 344.472 182.334 358.413C190.277 372.352 197.561 391.968 193.072 395.566C181.404 395.117 171.299 381.682 171.299 381.682C175.551 397.471 168.97 419.642 172.198 429.398C192.578 448.736 261.699 461.777 280.992 432.095C280.992 416.821 269.576 385.059 271.05 333.748C272.084 297.793 275.18 258.595 273.616 243.959C263.581 238.22 248.676 237.957 248.676 237.957C241.508 272.459 185.551 276.285 167.871 247.278C159.848 247.281 148.642 256.165 148.642 256.165Z" fill="#FFC648"/>
<path d="M183.815 242.971C182.468 240.025 172.806 242.594 172.896 246.201C173.049 252.312 186.252 272.053 217.614 266.384C245.807 261.286 245.309 238.006 243.214 235.483C241.121 232.957 230.829 231.758 231.372 235.807C231.916 239.854 232.867 251.609 214.172 254.575C195.483 257.535 186.94 249.804 183.815 242.971Z" fill="#F2AF08"/>
<path d="M233.941 237.899C232.571 258.242 194.812 262.874 183.104 244.532C174.427 243.698 181.219 261.619 203.946 265.162C222.285 268.021 235.135 259.572 238.268 250.919C242.78 238.461 234.28 232.859 233.941 237.899Z" fill="#FFC648"/>
<path d="M201.99 453.976C194.206 452.299 211.476 465.534 244.902 463.61C278.328 461.687 285.664 445.469 278.412 448.933C271.16 452.395 248.038 463.903 201.99 453.976Z" fill="#FFC648"/>
<path d="M207.212 302.271C203.836 297.459 195.096 292.454 185.734 296.839C176.369 301.225 180.205 339.319 192.844 346.343C205.483 353.367 213.929 340.668 212.356 334.403C210.787 328.138 203.385 321.875 201.995 324.746C200.602 327.616 201.012 334.009 195.257 334.748C189.5 335.486 181.945 310.61 191.006 305.831C200.067 301.048 198.437 310.581 201.72 311.045C205.001 311.511 210.021 306.274 207.212 302.271Z" fill="#2D2D3A"/>
<path d="M217.554 302.508C210.366 301.048 205.649 312.226 208.727 323.164C210.991 331.211 215.615 338.119 222.321 335.402C232.058 331.463 234.668 305.984 217.554 302.508ZM216.739 323.761C212.372 318.573 215.95 309.553 220.711 309.666C224.881 309.761 227.566 315.899 225.705 322.391C224.381 327.008 218.898 326.327 216.739 323.761Z" fill="#2D2D3A"/>
<path d="M233.194 340.428C243.18 345.506 251.663 336.118 252.128 321.2C252.527 308.403 240.494 297.827 233.136 301.587C226.274 305.092 227.8 312.012 228.555 318.978C229.728 329.803 226.774 337.166 233.194 340.428ZM235.02 331.837C233.321 329.073 232.829 315.865 235.407 315.082C240.538 313.521 245.46 318.176 243.795 327.5C243.13 331.223 237.844 336.445 235.02 331.837Z" fill="#2D2D3A"/>
<path d="M243.023 292.199C242.801 295.907 250.235 299.134 253.238 315.462C255.212 326.194 251.426 332.659 253.631 334.864C255.836 337.065 267.533 334.988 270.808 330.524C274.08 326.064 274.088 313.023 271.282 312.119C268.478 311.215 268.903 317.707 267.634 320.488C266.366 323.268 260.293 327.086 259.18 324.079C258.067 321.073 261.386 297.445 257.432 292.868C253.475 288.286 243.148 290.096 243.023 292.199Z" fill="#2D2D3A"/>
<path d="M215.047 363.645C217.339 362.628 227.002 362.173 227.961 364.331C228.918 366.489 230.658 371.807 228.346 374.168C226.036 376.526 217.568 377.945 215.839 374.017C214.108 370.09 213.559 364.308 215.047 363.645Z" fill="#2D2D3A"/>
<path d="M233.325 362.605C232.77 364.496 233.781 371.987 235.854 373.49C237.926 374.991 248.698 371.028 249.178 367.72C249.658 364.415 249.522 358.028 246.074 358.08C242.629 358.135 234.027 360.2 233.325 362.605Z" fill="#2D2D3A"/>
<path d="M195.367 352.38C204.593 368.812 250.843 362.509 263.098 339.307C269.263 339.681 271.339 335.368 265.705 333.551C260.072 331.738 258.566 335.808 259.217 338.716C259.864 341.624 250.014 353.758 226.839 357.628C203.665 361.495 196.91 353.301 197.78 350.772C198.647 348.243 198.144 340.796 191.63 346.476C185.112 352.157 192.959 353.99 195.367 352.38Z" fill="#2D2D3A"/>
<path d="M106.452 400.038C111.721 408.93 144.841 383.426 140.624 373.45C136.41 363.471 99.012 387.475 106.452 400.038Z" fill="#AFA798"/>
<path d="M144.841 263.293C136.179 261.784 132.649 269.689 124.695 278.104C108.18 295.576 80.3638 316.58 78.4389 334.545C77.066 347.365 96.2778 360.594 108.423 351.67C121.632 341.969 136.898 326.171 145.237 321.777" fill="#FAA181"/>
<path d="M113.678 328.835C129.873 341.036 147.998 404.875 158.175 418.718C161.629 427.741 147.683 442.43 138.052 432.405C119.893 408.397 76.009 361.845 78.5236 333.247" fill="#FAA181"/>
<path d="M100.171 298.664C89.4389 307.151 75.5886 322.918 74.6319 335.929C72.837 360.362 100.671 392.44 106.451 400.038C107.61 388.544 133.929 374.156 140.623 373.449C136.328 365.458 130.418 347.921 126.23 342.227C132.51 338.855 135.204 334.582 135.204 334.582" fill="#D8D6CE"/>
<path d="M144.474 255.777C131.468 261.468 110.753 287.364 104.92 291.411C99.0875 295.458 97.2926 296.581 97.9661 301.303C98.6395 306.025 123.542 336.601 132.517 338.849C139.248 338.849 144.182 325.585 154.726 323.561" fill="#C98211"/>
<path d="M126.279 326.77C130.193 332.337 134.843 334.93 134.843 334.93C131.742 337.001 123.057 331.958 111.946 319.291" fill="#F2AF08"/>
<path d="M145.021 257.903C136.194 262.422 106.427 292.657 100.291 296.532C97.9672 305.127 116.589 329.319 129.376 329.592C137.934 326.246 147.325 309.851 149.79 286.467C152.259 263.082 145.021 257.903 145.021 257.903Z" fill="#F2AF08"/>
<path d="M146.16 258.242C129.486 265.979 111.011 290.264 105.649 293.398C107.837 303.403 120.719 319.891 124.899 319.891C137.749 312.394 151.808 280.557 146.16 258.242Z" fill="#FFC648"/>
<path d="M101.123 295.953C98.1982 298.739 110.028 320.56 121.916 324.832C111.728 312.661 104.389 292.839 101.123 295.953Z" fill="#FFC648"/>
<path d="M97.831 304.805C89.53 311.806 79.8157 322.97 78.4486 333.232C77.1537 342.959 94.1256 374.379 110.754 388.095C121.809 376.966 135.656 372.58 135.656 372.58C133.148 364.119 126.798 347.574 121.916 343.776C117.034 339.979 99.3108 335.382 99.3108 335.382C106.49 333.684 120.176 338.855 120.176 338.855C122.419 337.505 122.419 337.505 122.419 337.505C114.719 332.181 101.75 311.409 97.831 304.805Z" fill="#F0EAEC"/>
<path d="M93.9137 304.136C96.619 312.394 120.452 337.951 127.909 341.253C126.84 341.856 126.233 342.224 126.233 342.224C119.987 342.957 91.532 322.153 88.6157 309.631C91.0523 306.671 93.9137 304.136 93.9137 304.136Z" fill="#1D1D27"/>
<path d="M120.177 338.852C109.586 333.687 89.3283 327.335 81.8828 318.214C78.8278 321.203 77.1543 326.625 77.1543 326.625C81.0649 332.931 109.922 337.271 123.237 341.621" fill="#1D1D27"/>
<path d="M74.5488 338.444C79.7167 340.355 93.067 335.967 105.958 337.766C96.9718 339.003 87.0147 345.769 75.9593 348.614C74.5488 345.123 74.5488 338.444 74.5488 338.444Z" fill="#1D1D27"/>
<path d="M125.196 341.039C117.092 339.318 103.421 340.491 78.8271 357.214C79.3994 359.528 81.8157 363.919 81.8157 363.919C95.0504 354.928 116.109 343.86 128.014 345.123C127.017 342.001 125.196 341.039 125.196 341.039Z" fill="#1D1D27"/>
<path d="M85.9224 371.349C87.723 374.901 90.6104 378.814 90.6104 378.814C100.062 369.501 122.693 353.028 132.578 354.671C132.578 354.671 130.26 349.613 129.43 347.93C121.745 347.322 96.8448 360.287 85.9224 371.349Z" fill="#1D1D27"/>
<path d="M96.6348 387.376C106.155 373.026 126.107 361.032 135.368 361.747C136.634 364.771 138.293 368.606 138.293 368.606C129.261 369.881 114.029 378.469 101.791 394.128C101.791 394.128 97.4469 388.48 96.6348 387.376Z" fill="#1D1D27"/>
<path d="M133.996 369.174C135.916 368.769 133.392 363.462 131.453 362.506C129.511 361.547 111.698 368.78 103.42 379.683C103.851 381.175 108.943 385.216 108.943 385.216C116.796 376.143 126.803 370.695 133.996 369.174Z" fill="#363642"/>
<path d="M128.688 354.584C128.206 352.967 124.937 348.611 124.937 348.611C117.509 349.874 100.589 356.907 92.418 366.474C93.8082 368.543 96.6349 371.72 96.6349 371.72C103.329 365.411 119.63 354.844 128.688 354.584Z" fill="#363642"/>
<path d="M122.335 344.631C120.766 342.589 118.997 341.219 118.997 341.219C110.551 338.733 91.6515 347.278 85.3882 353.283C85.4431 355.742 88.2294 358.68 88.2294 358.68C95.5765 353.156 110.58 344.886 122.335 344.631Z" fill="#363642"/>
<path d="M112.733 329.589C113.773 330.495 111.187 332.077 108.262 331.266C105.339 330.455 93.8274 319.256 89.5815 312.302C91.2203 309.217 94.8853 307.644 94.8853 307.644C101.258 315.433 110.178 327.361 112.733 329.589Z" fill="#363642"/>
<path d="M104.386 335.365C109.247 336.323 105.325 332.917 98.6947 330.235C92.0701 327.549 82.5668 317.22 79.2574 325.218C76.7313 331.333 102.611 335.017 104.386 335.365Z" fill="#363642"/>
<path d="M106.131 337.323C105.798 336.089 82.8783 337.221 79.2567 339.721C78.3289 343.771 81.8002 345.793 81.8002 345.793C88.4161 344.466 106.298 337.948 106.131 337.323Z" fill="#363642"/>
<path d="M140.773 462.289C137.908 459.604 133.264 449.098 135.712 446.537C138.013 444.133 142.998 450.616 142.998 450.616C145.519 454.063 146.605 459.106 146.605 459.106" fill="#FAA181"/>
<path d="M155.838 414.947C156.609 416.311 176.064 427.961 181.697 438.154C185.099 444.313 151.476 462.272 145.239 455.844C141.282 451.766 137.929 431.706 137.929 431.706" fill="#FAA181"/>
<path d="M181.508 437.827C185.378 443.826 191.803 469.6 189.748 472.144C184.817 478.247 177.609 449.892 174.525 446.711" fill="#FAA181"/>
<path d="M177.11 443.641C178.295 446.572 176.494 457.235 174.656 459.468C172.818 461.701 165.216 463.752 164.106 460.209C162.996 456.67 162.23 451.323 162.23 451.323" fill="#FAA181"/>
<path d="M169.363 447.849C170.195 450.902 167.658 460.884 165.571 462.886C163.484 464.887 155.695 466.032 155.01 462.382C154.322 458.735 154.186 453.333 154.186 453.333" fill="#FAA181"/>
<path d="M160.219 448.93C161.158 451.951 158.97 462.014 156.956 464.088C154.938 466.162 147.51 466.733 146.695 463.112C145.883 459.491 145.241 454.94 145.241 454.94" fill="#FAA181"/>
<path d="M151.695 450.416C152.427 453.127 150.143 461.976 148.285 463.746C146.426 465.516 143.097 464.433 141.348 462.938C138.088 460.154 136.067 453.834 136.067 453.834" fill="#FAA181"/>
<path d="M142.714 451.137C143.431 452.768 143.582 453.22 143.582 453.22C142.761 453.97 141.79 456.238 141.752 457.214" fill="#FAA181"/>
<path d="M137.931 376.862C145 390.183 153.472 412.933 154.726 415.72C155.981 418.506 147.986 425.826 143.567 424.256C139.145 422.686 117.615 392.023 117.615 392.023C125.031 381.528 136.185 376.876 137.931 376.862Z" fill="#FFC599"/>
<path d="M154.182 416.239C156.728 416.688 175.709 431.724 179.518 436.648C183.327 441.572 190.27 466.04 189.374 470.872C188.475 475.706 183.541 463.819 179.504 449.585C179.839 444.455 178.732 441.462 177.492 441.378C175.951 441.271 176.928 458.807 170.922 459.407C171.541 454.176 173.087 444.318 169.529 445.017C166.83 445.547 170.477 460.528 162.234 463.005C163.676 456.122 164.012 446.022 160.445 446.708C158.702 447.044 159.936 462.121 154.858 463.457C151.132 464.436 156.916 447.849 152.358 447.849C149.216 447.849 152.364 460.925 147.199 462.289C145.242 462.805 145.349 458.576 146.04 455.413C147.756 447.554 139.308 433.401 144.04 424.477" fill="#FFC599"/>
<path d="M189.45 466.379C189.063 465.974 186.329 466.611 186.112 467.593C185.895 468.572 187.502 472.204 189.037 471.984C190.494 471.773 189.838 466.785 189.45 466.379Z" fill="#FF9A92"/>
<path d="M135.715 446.54C138.409 447.12 142.686 455.421 143.056 457.214C143.545 453.976 143.056 451.166 142.18 449.64C137.513 444.104 135.715 446.54 135.715 446.54Z" fill="#F26E4E"/>
<path d="M139.439 35.7165C133.338 29.0282 119.863 35.5948 123.511 44.4556C127.158 53.3107 143.359 40.496 139.439 35.7165Z" fill="#C98211"/>
<path d="M130.2 33.3384C133.874 32.1768 138.14 35.3747 131.908 38.3177C125.68 41.2578 123.076 35.5891 130.2 33.3384Z" fill="#F2AF08"/>
<path d="M100.857 146.18C100.857 146.18 66.783 197.491 80.142 219.569C87.7955 232.216 101.681 208.611 164.033 209.489C211.307 149.876 149.582 106.536 149.582 106.536" fill="#376082"/>
<path d="M97.68 155.408C79.7485 178.072 74.624 207.826 80.8035 217.17C79.2283 207.696 90.09 166.146 97.68 155.408Z" fill="#457793"/>
<path d="M105.067 156.889C88.4683 177.498 81.5229 209.324 85.4913 217.431C89.4597 225.536 121.663 204.144 156.685 208.472C191.707 212.799 128.089 156.941 125.615 157.141" fill="#BF8D00"/>
<path d="M104.175 156.975C75.4948 201.992 101.083 215.253 143.16 201.751C185.243 188.25 131.714 167.053 131.714 167.053" fill="#936900"/>
<path d="M247.832 124.785C251.384 124.055 257.237 111.718 266.653 116.973C272.434 120.191 271.665 144.117 257.488 148.288C251.572 150.032 247.138 141.812 247.092 141.571" fill="#FFC599"/>
<path d="M254.217 135.384C253.804 126.216 261.665 121.689 265.191 120.298C260.847 126.648 259.954 142.191 260.998 144.844" fill="#FAA181"/>
<path d="M233.6 76.7069C256.566 97.4671 259.881 132.65 262.321 140.424C275.145 181.383 245.193 212.631 219.998 217.608C174.432 226.608 117.849 197.917 109.21 155.151C90.1799 60.845 195.263 37.4489 233.6 76.7069Z" fill="#FAA181"/>
<path d="M129.483 172.244C123.694 169.724 103.672 159.901 97.3976 171.372C92.5852 180.163 110.762 200.634 125.665 198.832C133.33 197.905 134.619 187.109 134.555 186.837" fill="#FAA181"/>
<path d="M139.622 140.711C138.778 168.901 167.187 228.053 226.582 211.644C251.318 204.81 273.729 166.949 258.711 134.805C256.133 129.289 257.882 119.98 246.948 102.658C241.936 102.371 234.412 98.2954 234.412 98.2954C239.36 113.708 235.456 114.997 231.768 116.228C228.08 117.457 211.287 107.208 205.977 99.231C204.209 115.232 193.321 120.359 187.763 120.62C182.208 120.88 178.835 112.839 177.806 104.338C160.432 109.673 139.885 131.917 139.622 140.711Z" fill="#FFC599"/>
<path d="M228.743 143.019C225.115 139.381 223.427 112.098 239.159 109.474C253.81 107.029 259.016 126.468 257.81 133.24C255.484 146.307 235.841 150.142 228.743 143.019Z" fill="#7C3505"/>
<path d="M228.921 143.521C225.514 140.103 224.017 114.858 238.751 112.104C251.642 109.694 257.171 128.154 255.966 134.503C253.587 147.057 235.589 150.212 228.921 143.521Z" fill="#FCCACA"/>
<path d="M228.921 143.521C225.695 140.288 223.071 115.985 235.56 113.949C249.552 111.669 256.491 130.326 254.428 137.142C251.578 146.571 235.225 149.85 228.921 143.521Z" fill="white"/>
<path d="M233.736 116.605C248.02 110.965 256.298 136.786 250.043 143.069C245.43 146.579 235.754 148.708 231.577 145.015C227.282 141.215 223.877 120.498 233.736 116.605Z" fill="#559AC4"/>
<path d="M227.68 86.8276C224.743 87.3374 219.89 97.522 222.46 96.4821C234.96 91.4159 240.018 95.3321 240.385 93.8288C241.146 90.7265 231.388 86.1817 227.68 86.8276Z" fill="#7C3505"/>
<path d="M157.192 104.827C160.521 103.066 169.721 105.615 170.241 107.733C170.767 109.85 158.264 108.744 145.012 123.432C143.734 117.428 153.735 106.661 157.192 104.827Z" fill="#7C3505"/>
<path d="M234.915 121.996C248.919 118.048 255.653 144.039 242.028 145.939C228.406 147.842 225.851 124.551 234.915 121.996Z" fill="#001826"/>
<path d="M252.69 127.056C250.014 124.443 243.664 130.367 245.167 133.055C246.664 135.74 256.757 131.016 252.69 127.056Z" fill="white"/>
<path d="M193.712 153.077C195.885 147.944 185.526 120.965 165.303 125.173C147.305 128.919 148.481 154.933 154.32 160.13C164.901 169.553 189.463 163.119 193.712 153.077Z" fill="#7C3505"/>
<path d="M193.884 152.972C195.849 148.329 186.551 124.139 168.235 127.884C149.914 131.633 152.946 154.655 158.226 159.356C167.805 167.884 190.034 162.062 193.884 152.972Z" fill="#FCCACA"/>
<path d="M190.726 154.554C193.753 149.015 184.986 126.352 168.072 129.811C151.158 133.272 155.225 154.722 160.107 159.064C168.948 166.934 186.353 162.549 190.726 154.554Z" fill="white"/>
<path d="M167.022 132.493C180.317 128.699 193.098 152.871 185.179 160.26C177.722 164.631 164.857 164.796 161.707 161.74C158.553 158.685 152.596 136.609 167.022 132.493Z" fill="#559AC4"/>
<path d="M166.652 139.034C177.523 134.066 190.324 159.496 175.803 163.832C161.282 168.168 155.449 144.152 166.652 139.034Z" fill="#001826"/>
<path d="M187.503 145.021C184.653 142.243 177.904 148.543 179.5 151.402C181.092 154.261 191.824 149.236 187.503 145.021Z" fill="white"/>
<path d="M166.828 153.152C169.557 151.712 170.878 156.88 168.742 158.021C166.609 159.165 164.097 154.591 166.828 153.152Z" fill="white"/>
<path d="M234.803 135.836C237.531 134.396 238.852 139.564 236.716 140.705C234.58 141.844 232.071 137.273 234.803 135.836Z" fill="white"/>
<path d="M137.448 114.792C122.852 130.752 130.708 162.352 140.945 179.468C136.066 182.419 132.546 180.89 132.546 180.89C121.855 165.938 106.013 164.982 106.013 164.982C97.1366 158.635 98.2407 146.113 101.588 133.675" fill="#160F13"/>
<path d="M132.74 122.001C125.679 136.899 134.732 163.858 143.085 173.113C133.781 170.236 124.217 157.963 122.431 151.489C123.858 160.703 127.743 165.509 127.743 165.509C119.211 162.537 111.751 153.85 111.751 153.85C118.318 134.602 132.74 122.001 132.74 122.001Z" fill="#3F2F39"/>
<path d="M221.574 82.4769C246.584 76.281 268.01 94.4023 264.94 100.65C261.871 106.895 222.803 85.6081 209.236 81.3037C241.353 90.0139 234.899 106.409 230.933 108.981C226.965 111.556 199.036 83.3198 199.036 83.3198C199.036 83.3198 197.085 112.509 187.746 115.577C178.405 118.647 177.991 95.1554 180.598 88.5888C153.817 97.2236 139.42 61.2474 172.748 49.9882C206.082 38.7319 246.873 59.5268 226.618 75.0064" fill="#160F13"/>
<path d="M164.585 70.6818C173.453 71.6464 181.855 79.1023 181.855 79.1023C184.049 71.1337 177.45 63.4663 177.45 63.4663C186.806 65.3752 191.85 79.6585 191.85 79.6585C197.61 79.9134 211.489 77.4368 211.489 77.4368C209.307 62.1976 204.281 62.1223 201.766 59.9093C210.856 61.0795 217.039 73.6219 221.273 78.7576C220.672 60.7753 205.139 43.2391 178.612 56.1958C187.393 57.6383 193.185 63.4721 193.185 63.4721C183.893 57.6383 172.771 56.7635 165.782 63.7502" fill="#3F2F39"/>
<path d="M193.081 89.8953C193.963 103.005 188.896 114.305 183.777 114.01C178.679 109.219 179.248 97.1571 183.931 90.5528" fill="#3F2F39"/>
<path d="M221.282 89.1622C238.178 93.7042 243.138 103.796 242.248 106.539C246.87 99.8711 245.219 88.1571 222.357 84.9795" fill="#160F13"/>
<path d="M197.277 86.2801C207.832 88.1601 211.306 106.777 209.659 113.871C215.142 105.783 215.289 90.6946 199.115 84.5566" fill="#160F13"/>
<path d="M184.332 179.523C180.491 183.077 185.855 185.125 191.746 183.37C189.13 182.225 188.74 175.441 184.332 179.523Z" fill="#FAA181"/>
<path d="M247.09 170.312C250.795 174.011 247.471 175.537 241.375 174.755C243.772 173.205 243.714 166.937 247.09 170.312Z" fill="#FAA181"/>
<path d="M186.713 180.87C183.603 183.187 189.916 185.363 204.853 183.089C197.176 183.729 191.28 183.648 189.13 182.226C187.375 181.067 187.514 180.273 186.713 180.87Z" fill="#C13A36"/>
<path d="M236.878 176.247C240.02 175.769 242.963 174.231 243.714 172.525C244.185 171.456 244.775 170.821 245.39 171.519C246.864 173.194 244.367 174.822 237.066 176.716" fill="#C13A36"/>
<path d="M225.932 181.287L197.063 183.963C197.063 183.963 214.905 188.957 223.513 187.277C232.123 185.597 236.262 180.812 240.829 175.589C237.403 177.492 229.501 180.282 225.932 181.287Z" fill="#F27F7C"/>
<path d="M225.329 177.623C222.048 179.598 220.753 177.177 214.955 178.848C209.163 180.513 198.07 184.546 190.711 183.132C215.504 185.588 234.474 180.438 241.67 174.871C235.497 176.997 231.323 174.016 225.329 177.623Z" fill="#E8524A"/>
<path d="M222.283 156.408C225.272 156.61 225.711 157.952 228.946 158.363C233.249 158.91 230.946 162.158 226.749 163.423C222.549 164.686 218.121 165.984 213.76 166.465C209.396 166.946 210.121 163.389 213.245 161.743C215.572 160.521 218.746 156.162 222.283 156.408Z" fill="#FFAD8D"/>
<path d="M225.439 160.263C225.971 159.229 230.829 159.055 230.506 160.127C229.954 161.972 224.361 162.357 225.439 160.263Z" fill="#CE6C4E"/>
<path d="M208.471 157.123C204.794 160.785 205.699 167.54 212.977 166.459C215.292 166.349 212.422 164.565 212.422 164.565C208.685 164.136 208.089 162.074 208.471 157.123Z" fill="#FFAD8D"/>
<path d="M216.727 162.349C215.605 161.584 210.825 164.087 211.689 164.947C213.056 166.303 218.669 163.675 216.727 162.349Z" fill="#CE6C4E"/>
<path d="M124.459 179.729C113.337 172.507 102.816 172.956 100.151 178.382C106.591 178.141 118.86 181.609 120.068 184.676C117.843 189.8 124.34 191.741 126.942 190.716C118.412 186.999 124.459 179.729 124.459 179.729Z" fill="#F26E4E"/>
<path d="M122.049 174.254C115.58 167.015 105.343 162.204 98.721 169.434C96.8134 172.571 98.0852 174.79 98.0852 174.79C99.6199 171.264 111.17 170.323 122.049 174.254Z" fill="#FFC599"/>
<path d="M242.785 84.8204C256.465 85.3302 265.68 95.816 262.341 100.291C248.031 90.5326 235.404 86.1789 229.716 85.8313C240.482 88.4006 243.575 97.8987 241.355 101.354C240.387 93.8318 229.38 87.6852 223.539 86.1442C232.609 93.8869 233.08 101.861 230.21 104.961C225.669 99.9003 204.752 83.6675 204.752 83.6675C213.758 82.9608 224.779 94.0664 224.779 94.0664C221.053 87.465 216.333 81.9817 216.333 81.9817C223.074 82.3611 242.785 84.8204 242.785 84.8204Z" fill="#3F2F39"/>
<path d="M100.851 162.476C110.3 124.658 195.873 74.6734 248.679 84.5422C250.141 70.9773 208.327 6.05795 141.368 33.8425C74.4137 61.6328 80.6596 127.638 100.851 162.476ZM187.933 54.4433C214.75 47.1786 226.285 71.1047 218.602 72.1099C191.442 75.6611 177.771 84.2207 172.791 85.3707C167.808 86.5206 163.345 61.1027 187.933 54.4433Z" fill="#376082"/>
<path d="M136.166 37.0114C102.087 53.6525 100.638 95.5465 111.578 121.547C120.795 109.479 155.771 91.0017 168.353 85.6748C160.488 65.9082 177.789 54.0059 187.729 51.1354C197.672 48.2648 219.234 52.2187 224.347 69.2364C231.714 67.4637 241.717 70.1489 241.717 70.1489C223.922 36.8434 185.848 12.755 136.166 37.0114Z" fill="#457793"/>
<path d="M174.855 84.6987C187.153 76.368 207.764 66.6498 214.66 68.3299C217.923 69.1235 218.929 81.0374 214.998 81.973C199.732 85.0492 180.809 95.0455 180.809 95.0455C178.497 95.9956 177.014 93.2844 177.014 93.2844" fill="#F2AF08"/>
<path d="M213.873 68.3008C216.853 68.2892 218.428 78.8909 215.13 79.6266C211.827 80.3595 211.526 68.3124 213.873 68.3008Z" fill="#FFC648"/>
<path d="M175.499 84.4495C186.74 75.9942 207.712 67.7938 210.518 68.7207C213.319 69.6448 215.365 77.8712 212.464 79.0212C209.559 80.1682 190.728 86.929 178.213 93.6231C162.403 100.135 131.966 116.269 113.71 136.421C111.3 133.365 109.566 128.267 113.254 123.311C116.945 118.355 140.897 98.1332 175.499 84.4495Z" fill="#457793"/>
<path d="M219.028 73.1961C228.3 71.687 241.615 72.3503 244.011 73.8218C246.405 75.2962 247.37 81.9121 246.39 82.0309C238.393 79.673 221.56 81.075 218.293 81.5587C222.84 78.0132 219.028 73.1961 219.028 73.1961Z" fill="#457793"/>
<path d="M143.021 36.4581C176.04 18.0644 226.516 35.8179 220.114 56.355C192.749 37.7818 156.172 57.6614 164.375 83.7514C133.703 97.4785 106.916 56.5694 143.021 36.4581Z" fill="#5086A3"/>
<path d="M209.015 69.4826C212.015 69.642 212.513 74.9631 210.692 77.1616C208.871 79.3602 189.647 83.7225 188.592 81.046C187.537 78.3695 204.212 69.2248 209.015 69.4826Z" fill="#5086A3"/>
</g>
</svg>
