<svg width="26" height="25" viewBox="0 0 26 25" fill="none" xmlns="http://www.w3.org/2000/svg">
<path d="M5.91395 25V8.13177H0.330232V25H5.91395ZM3.12326 5.82742C5.06977 5.82742 6.28139 4.53399 6.28139 2.91371C6.24651 1.2584 5.07209 0 3.16047 0C1.24884 0 0 1.26074 0 2.91371C0 4.53399 1.21163 5.82742 3.08605 5.82742H3.12326ZM14.5372 25V15.5795C14.5372 15.0752 14.5744 14.5709 14.7233 14.2113C15.1256 13.2051 16.0442 12.1615 17.5884 12.1615C19.6093 12.1615 20.4163 13.707 20.4163 15.9764V25H26V15.325C26 10.1419 23.2465 7.73254 19.5721 7.73254C16.6093 7.73254 15.2814 9.36683 14.5372 10.5178V10.5762H14.5C14.5124 10.5567 14.5248 10.5373 14.5372 10.5178V8.13177H8.95581C9.02558 9.7147 8.95581 25 8.95581 25H14.5372Z" fill="#FF424E"/>
</svg>
