<svg width="26" height="33" viewBox="0 0 26 33" fill="none" xmlns="http://www.w3.org/2000/svg">
<path d="M12.5959 21.0884C14.0654 21.0884 15.3906 20.7273 16.5714 20.0051C17.7523 19.283 18.6838 18.332 19.3661 17.1522C18.4477 16.3912 17.4111 15.807 16.2565 15.3998C15.1019 14.9925 13.8817 14.7894 12.5959 14.7904C11.31 14.7904 10.0898 14.9941 8.93518 15.4013C7.78056 15.8086 6.74403 16.3922 5.82558 17.1522C6.50786 18.333 7.43942 19.2845 8.62029 20.0067C9.80115 20.7289 11.1263 21.0894 12.5959 21.0884ZM12.5959 13.216C13.4618 13.216 14.2034 12.9074 14.8206 12.2902C15.4378 11.673 15.7453 10.9319 15.7432 10.067C15.7432 9.20104 15.4346 8.45946 14.8174 7.84226C14.2002 7.22507 13.4597 6.91699 12.5959 6.91804C11.7299 6.91804 10.9883 7.22664 10.3711 7.84384C9.75391 8.46103 9.44636 9.20209 9.44846 10.067C9.44846 10.933 9.75706 11.6746 10.3743 12.2917C10.9915 12.9089 11.732 13.217 12.5959 13.216ZM12.5959 27.9374C15.7973 24.9983 18.1721 22.328 19.7204 19.9264C21.2686 17.5248 22.0427 15.393 22.0427 13.5309C22.0427 10.6706 21.1306 8.32878 19.3063 6.50553C17.482 4.68228 15.2452 3.77013 12.5959 3.76908C9.94547 3.76908 7.70814 4.68123 5.88384 6.50553C4.05954 8.32983 3.14791 10.6716 3.14896 13.5309C3.14896 15.394 3.92308 17.5264 5.47132 19.928C7.01956 22.3296 9.39441 24.9994 12.5959 27.9374ZM12.5959 32.1097C8.37099 28.5147 5.21573 25.1757 3.13007 22.0929C1.04441 19.0101 0.00104965 16.156 0 13.5309C0 9.59466 1.26641 6.45882 3.79922 4.12334C6.33204 1.78786 9.26372 0.620117 12.5943 0.620117C15.9269 0.620117 18.8597 1.78786 21.3925 4.12334C23.9253 6.45882 25.1912 9.59466 25.1901 13.5309C25.1901 16.155 24.1468 19.009 22.0601 22.0929C19.9733 25.1768 16.8186 28.5157 12.5959 32.1097Z" fill="#FF424E"/>
</svg>
