<svg width="31" height="29" viewBox="0 0 31 29" fill="none" xmlns="http://www.w3.org/2000/svg">
<path d="M31 11.1771V25.0551C31 26.7475 29.6153 28.1322 27.9228 28.1322H3.30556C1.61312 28.1322 0.228394 26.7475 0.228394 25.0551L0.243779 6.5921C0.243779 4.89966 1.61312 3.51494 3.30556 3.51494H18.8452C18.7529 4.00728 18.6914 4.5304 18.6914 5.05352C18.6914 5.57663 18.7529 6.09975 18.8452 6.5921H3.30556L15.6142 14.285L21.2608 10.7617C21.9839 11.4232 22.8301 11.931 23.7687 12.2695L15.6142 17.3622L3.30556 9.66926V25.0551H27.9228V12.5926C29.0614 12.3618 30.1076 11.854 31 11.1771ZM21.7685 5.05352C21.7685 7.60756 23.8302 9.66926 26.3843 9.66926C28.9383 9.66926 31 7.60756 31 5.05352C31 2.49947 28.9383 0.437775 26.3843 0.437775C23.8302 0.437775 21.7685 2.49947 21.7685 5.05352Z" fill="#FF424E"/>
</svg>
