<svg width="27" height="28" viewBox="0 0 27 28" fill="none" xmlns="http://www.w3.org/2000/svg">
<path d="M24.0252 14.0949C24.0252 11.1945 23.0148 8.73395 20.994 6.71312C18.9732 4.69229 16.5131 3.68237 13.6137 3.68336V0.708639C15.4729 0.708639 17.2146 1.06214 18.8388 1.76913C20.463 2.47612 21.876 3.43002 23.0778 4.63081C24.2796 5.83359 25.234 7.24659 25.941 8.8698C26.648 10.493 27.001 12.2347 27 14.0949H24.0252ZM18.0758 14.0949C18.0758 12.8554 17.642 11.8019 16.7744 10.9343C15.9067 10.0666 14.8532 9.63281 13.6137 9.63281V6.65809C15.6712 6.65809 17.4253 7.38343 18.876 8.8341C20.3267 10.2848 21.0515 12.0384 21.0505 14.0949H18.0758ZM25.4382 27.4812C22.2404 27.4812 19.1229 26.7747 16.0857 25.3617C13.0485 23.9487 10.3589 22.0647 8.01677 19.7097C5.67467 17.3547 3.79067 14.6586 2.36479 11.6214C0.938903 8.58422 0.226457 5.46721 0.227449 2.27037V1.4895C0.227449 1.21682 0.252238 0.956533 0.301817 0.708639H9.00289L10.3787 8.18264L6.13971 12.4588C7.18087 14.2436 8.48875 15.9169 10.0634 17.4787C11.638 19.0404 13.3668 20.3914 15.2498 21.5317L19.5632 17.2184L27 18.7057V27.4068C26.7521 27.4316 26.4918 27.4504 26.2191 27.4633C25.9464 27.4762 25.6861 27.4822 25.4382 27.4812ZM4.72672 9.63281L7.18087 7.17867L6.54874 3.68336H3.23936C3.3633 4.69973 3.53683 5.7037 3.75993 6.69527C3.98304 7.68685 4.3053 8.66603 4.72672 9.63281ZM18.0386 22.9447C19.0054 23.3661 19.991 23.7008 20.9955 23.9487C22 24.1966 23.0099 24.3577 24.0252 24.4321V21.1599L20.5299 20.4534L18.0386 22.9447Z" fill="#FF424E"/>
</svg>
