<svg width="31" height="30" viewBox="0 0 31 30" fill="none" xmlns="http://www.w3.org/2000/svg">
<path d="M19.7864 14.5751C19.2538 14.2331 18.6757 13.9678 18.0692 13.7869C17.697 13.674 17.285 13.5636 16.8597 13.4586C16.4875 13.355 16.0463 13.2486 15.5013 13.129C14.851 12.9927 14.2127 12.8042 13.5927 12.5655C13.2731 12.4413 12.9911 12.2367 12.7739 11.9713C12.615 11.7542 12.5396 11.4872 12.5613 11.2191C12.5608 10.9315 12.6567 10.6521 12.8338 10.4256C13.0815 10.1354 13.4029 9.91728 13.7641 9.79423C14.3717 9.58546 15.012 9.4882 15.6542 9.50714C16.1511 9.4989 16.6464 9.56429 17.1242 9.70119C17.441 9.79034 17.7394 9.93526 18.0054 10.1292C18.1774 10.2519 18.3241 10.4067 18.4374 10.5851C18.5194 10.74 18.6313 10.8771 18.7666 10.9885C18.9019 11.1 19.0579 11.1836 19.2256 11.2346C19.3933 11.2855 19.5694 11.3028 19.7438 11.2854C19.9183 11.2679 20.0875 11.2162 20.2419 11.1331C20.3962 11.05 20.5326 10.9372 20.6431 10.8012C20.7537 10.6652 20.8363 10.5087 20.8861 10.3406C20.936 10.1726 20.9521 9.99634 20.9335 9.82204C20.9149 9.64774 20.8621 9.47884 20.778 9.32505C20.4977 8.82931 20.1191 8.39602 19.6655 8.05174C19.1414 7.64911 18.5469 7.34757 17.9124 7.16255C17.1799 6.94616 16.4192 6.84043 15.6555 6.84888C14.6847 6.82799 13.7183 6.98567 12.8045 7.31407C11.9781 7.61492 11.2521 8.14063 10.7085 8.83194C10.1878 9.51934 9.90586 10.358 9.90568 11.2204C9.88412 12.0789 10.1561 12.9191 10.6766 13.6022C11.1791 14.2351 11.8378 14.7262 12.5879 15.027C13.1546 15.2451 13.7349 15.4262 14.325 15.5693C14.3357 15.5733 14.3436 15.5826 14.3543 15.5853C14.6095 15.6623 15.0162 15.7647 15.6037 15.891C15.8336 15.9415 16.0489 15.996 16.2642 16.0504C16.2855 16.0558 16.3161 16.0624 16.336 16.0691L16.3599 16.0717C16.6896 16.1568 17.0072 16.2432 17.2983 16.3322C17.6559 16.4369 17.9972 16.5908 18.3124 16.7894C18.509 16.9129 18.6741 17.0803 18.7949 17.2786C18.9118 17.5204 18.9657 17.7879 18.9517 18.0561C18.9701 18.4033 18.8698 18.7464 18.6673 19.029C18.3938 19.385 18.0238 19.6548 17.6013 19.8066C16.9717 20.0496 16.2995 20.1635 15.6249 20.1415C14.8448 20.1715 14.0688 20.0147 13.3614 19.6843C13.0347 19.5103 12.7541 19.2611 12.5427 18.9573C12.3943 18.7628 12.3015 18.5318 12.2742 18.2887C12.2742 17.9362 12.1342 17.5981 11.8849 17.3489C11.6356 17.0996 11.2976 16.9596 10.9451 16.9596C10.5926 16.9596 10.2545 17.0996 10.0052 17.3489C9.75596 17.5981 9.61593 17.9362 9.61593 18.2887C9.63784 19.073 9.89534 19.8326 10.3549 20.4685C10.8142 21.1299 11.426 21.6711 12.1386 22.0462C13.2228 22.5751 14.419 22.8337 15.6249 22.7998C16.6497 22.8246 17.6688 22.6414 18.6208 22.2615C19.5057 21.9219 20.2741 21.3345 20.8338 20.5695C21.3659 19.8242 21.6385 18.9249 21.61 18.0096C21.6223 17.3001 21.4506 16.5994 21.1116 15.976C20.7841 15.4132 20.3305 14.9341 19.7864 14.5764V14.5751ZM29.3841 17.0712C29.7424 14.8869 29.5756 12.6487 28.8974 10.5416C28.2192 8.43453 27.0491 6.5192 25.4839 4.95401C23.9188 3.38882 22.0034 2.21874 19.8964 1.54054C17.7893 0.862349 15.5511 0.695526 13.3667 1.05387C11.754 0.28061 9.94097 0.027028 8.17796 0.328129C6.41494 0.62923 4.78886 1.47017 3.52416 2.73486C2.25947 3.99955 1.41854 5.62563 1.11744 7.38865C0.816335 9.15167 1.06992 10.9647 1.84318 12.5774C1.48513 14.7615 1.65212 16.9995 2.33036 19.1062C3.00859 21.213 4.17858 23.128 5.74358 24.693C7.30858 26.258 9.22363 27.428 11.3304 28.1063C13.4372 28.7845 15.6751 28.9515 17.8592 28.5934C19.4719 29.3667 21.285 29.6203 23.048 29.3192C24.811 29.0181 26.4371 28.1772 27.7018 26.9125C28.9665 25.6478 29.8074 24.0217 30.1085 22.2587C30.4096 20.4957 30.156 18.6826 29.3828 17.0699L29.3841 17.0712ZM21.5941 26.7858C20.5855 26.7854 19.5935 26.5303 18.7098 26.0442C18.4357 25.8931 18.1172 25.8433 17.81 25.9033C16.172 26.23 14.4818 26.1891 12.8615 25.7835C11.2411 25.3778 9.73103 24.6177 8.44008 23.5577C7.14912 22.4978 6.10951 21.1646 5.39623 19.6542C4.68295 18.1438 4.31378 16.494 4.31536 14.8237C4.31673 14.0855 4.38973 13.3493 4.53334 12.6253C4.59347 12.3181 4.54359 11.9996 4.39245 11.7255C3.76836 10.5904 3.52964 9.28337 3.71218 8.00096C3.89472 6.71855 4.48864 5.53006 5.40466 4.61419C6.32068 3.69832 7.50926 3.10459 8.7917 2.92226C10.0741 2.73994 11.3811 2.97887 12.5161 3.60314C12.7905 3.75493 13.1096 3.80483 13.4172 3.74403C15.0552 3.41755 16.7452 3.45864 18.3654 3.86436C19.9855 4.27007 21.4955 5.03029 22.7863 6.09019C24.0771 7.15009 25.1166 8.48324 25.8298 9.9935C26.543 11.5038 26.9121 13.1535 26.9106 14.8237C26.9092 15.5618 26.8362 16.298 26.6926 17.022C26.6325 17.3292 26.6823 17.6478 26.8335 17.9219C27.3349 18.8324 27.5902 19.858 27.5743 20.8974C27.5585 21.9367 27.2719 22.954 26.743 23.8489C26.2141 24.7437 25.461 25.4852 24.5581 26.0002C23.6551 26.5153 22.6335 26.786 21.5941 26.7858Z" fill="#FF424E"/>
</svg>
